<?xml version="1.0" encoding="utf-8"?>
<!-- Generator: Adobe Illustrator 25.2.3, SVG Export Plug-In . SVG Version: 6.00 Build 0)  -->
<svg version="1.1" id="Layer_1" xmlns="http://www.w3.org/2000/svg" xmlns:xlink="http://www.w3.org/1999/xlink" x="0px" y="0px"
	 viewBox="0 0 33.3 33.47" style="enable-background:new 0 0 33.3 33.47;" xml:space="preserve">
<style type="text/css">
	.st0{fill:#EAF4FF;}
	.st1{fill:#FF5F1F;}
</style>
<circle class="st0" cx="16.64" cy="16.62" r="14.77"/>
<path class="st1" d="M16.64,33.24l-0.36,0l0.01-0.74l0.35,0c0.37,0,0.74-0.01,1.1-0.04l0.05,0.74
	C17.41,33.23,17.02,33.24,16.64,33.24z M15.52,33.21c-0.5-0.03-1.01-0.09-1.5-0.17l0.12-0.73c0.48,0.08,0.96,0.13,1.44,0.16
	L15.52,33.21z M18.54,33.14l-0.08-0.73c0.48-0.05,0.96-0.13,1.43-0.23l0.15,0.72C19.54,33,19.04,33.08,18.54,33.14z M13.27,32.9
	c-0.49-0.1-0.98-0.23-1.47-0.37l0.21-0.71c0.46,0.14,0.93,0.26,1.4,0.35L13.27,32.9z M20.77,32.73l-0.18-0.72
	c0.47-0.12,0.93-0.26,1.38-0.42l0.25,0.7C21.74,32.45,21.26,32.6,20.77,32.73z M11.09,32.29c-0.47-0.17-0.95-0.36-1.4-0.57
	l0.31-0.67c0.44,0.2,0.89,0.38,1.34,0.54L11.09,32.29z M22.92,32.01l-0.28-0.68c0.44-0.18,0.88-0.38,1.31-0.61l0.34,0.66
	C23.84,31.61,23.38,31.82,22.92,32.01z M9,31.39c-0.44-0.23-0.89-0.48-1.31-0.76l0.4-0.62c0.41,0.26,0.83,0.5,1.25,0.72L9,31.39z
	 M24.96,31.01l-0.37-0.64c0.41-0.24,0.82-0.5,1.21-0.78l0.43,0.6C25.82,30.49,25.39,30.76,24.96,31.01z M7.07,30.21
	c-0.41-0.29-0.81-0.6-1.19-0.93l0.48-0.56c0.37,0.31,0.75,0.61,1.14,0.89L7.07,30.21z M26.84,29.75l-0.45-0.58
	c0.38-0.3,0.75-0.61,1.1-0.94l0.5,0.54C27.62,29.11,27.23,29.44,26.84,29.75z M5.31,28.78c-0.37-0.34-0.72-0.7-1.06-1.08l0.55-0.49
	c0.32,0.36,0.66,0.71,1.01,1.03L5.31,28.78z M28.53,28.24L28,27.72c0.34-0.34,0.66-0.71,0.96-1.08l0.57,0.47
	C29.22,27.5,28.88,27.88,28.53,28.24z M3.76,27.13c-0.32-0.39-0.62-0.8-0.9-1.21l0.61-0.41c0.27,0.4,0.56,0.79,0.86,1.16L3.76,27.13
	z M30,26.51l-0.59-0.44c0.29-0.39,0.56-0.79,0.81-1.2l0.63,0.38C30.58,25.68,30.3,26.11,30,26.51z M2.45,25.28
	c-0.26-0.43-0.51-0.88-0.73-1.32l0.66-0.33c0.21,0.43,0.45,0.85,0.7,1.27L2.45,25.28z M31.22,24.6l-0.65-0.36
	c0.23-0.42,0.44-0.85,0.64-1.3l0.68,0.29C31.69,23.7,31.46,24.16,31.22,24.6z M1.4,23.27c-0.2-0.46-0.38-0.94-0.54-1.41l0.7-0.23
	c0.15,0.45,0.32,0.91,0.52,1.35L1.4,23.27z M32.17,22.54l-0.69-0.26c0.17-0.45,0.32-0.91,0.45-1.37l0.71,0.2
	C32.51,21.59,32.35,22.07,32.17,22.54z M0.63,21.14c-0.13-0.48-0.25-0.97-0.34-1.47l0.73-0.14c0.09,0.48,0.2,0.95,0.33,1.41
	L0.63,21.14z M32.83,20.37l-0.72-0.17c0.11-0.47,0.19-0.94,0.26-1.42l0.73,0.1C33.04,19.38,32.95,19.88,32.83,20.37z M0.17,18.91
	c-0.07-0.49-0.12-1-0.14-1.51l0.74-0.03c0.02,0.48,0.07,0.97,0.13,1.44L0.17,18.91z M33.19,18.13l-0.74-0.07
	c0.04-0.48,0.06-0.96,0.06-1.44l0.74-0.06v0.06C33.26,17.13,33.23,17.63,33.19,18.13z M0.01,16.65l0-0.06
	c0-0.46,0.02-0.96,0.06-1.45l0.74,0.06c-0.04,0.47-0.06,0.94-0.06,1.41L0.01,16.65z M32.5,15.84c-0.02-0.48-0.07-0.97-0.14-1.44
	l0.73-0.1c0.07,0.49,0.12,1,0.14,1.5L32.5,15.84z M0.9,14.49l-0.73-0.1c0.07-0.5,0.16-1,0.27-1.49l0.72,0.17
	C1.05,13.54,0.96,14.01,0.9,14.49z M32.25,13.69c-0.09-0.47-0.2-0.95-0.33-1.41l0.71-0.2c0.14,0.48,0.25,0.98,0.35,1.47L32.25,13.69
	z M1.33,12.37l-0.71-0.2c0.13-0.48,0.29-0.97,0.47-1.44L1.78,11C1.61,11.44,1.46,11.91,1.33,12.37z M31.7,11.59
	c-0.15-0.46-0.33-0.91-0.52-1.35l0.68-0.3c0.2,0.46,0.38,0.93,0.54,1.41L31.7,11.59z M2.05,10.32l-0.68-0.29
	c0.2-0.46,0.42-0.92,0.66-1.36l0.65,0.35C2.46,9.44,2.24,9.88,2.05,10.32z M30.88,9.59c-0.21-0.43-0.45-0.85-0.7-1.26l0.63-0.39
	c0.26,0.43,0.51,0.88,0.73,1.32L30.88,9.59z M3.05,8.4L2.41,8.02c0.26-0.43,0.54-0.85,0.84-1.26L3.85,7.2
	C3.56,7.58,3.29,7.99,3.05,8.4z M29.79,7.72c-0.27-0.4-0.56-0.79-0.86-1.16l0.57-0.47c0.32,0.39,0.62,0.8,0.9,1.21L29.79,7.72z
	 M4.29,6.63L3.72,6.16c0.32-0.39,0.65-0.77,1-1.13l0.53,0.52C4.92,5.89,4.6,6.25,4.29,6.63z M28.45,6.01
	c-0.32-0.36-0.66-0.7-1.01-1.03l0.5-0.54c0.37,0.34,0.73,0.7,1.06,1.08L28.45,6.01z M5.77,5.04L5.26,4.5
	c0.37-0.34,0.75-0.68,1.15-0.98L6.87,4.1C6.49,4.39,6.12,4.71,5.77,5.04z M26.9,4.5c-0.37-0.31-0.75-0.61-1.14-0.88l0.42-0.6
	c0.41,0.29,0.81,0.6,1.2,0.92L26.9,4.5z M7.45,3.67l-0.43-0.6C7.43,2.77,7.86,2.5,8.29,2.25l0.37,0.64
	C8.25,3.12,7.84,3.39,7.45,3.67z M25.15,3.21c-0.41-0.26-0.83-0.5-1.25-0.72l0.34-0.66c0.44,0.23,0.89,0.48,1.31,0.75L25.15,3.21z
	 M9.29,2.54L8.95,1.88c0.45-0.23,0.91-0.45,1.37-0.64l0.28,0.68C10.16,2.11,9.72,2.31,9.29,2.54z M23.25,2.18
	c-0.44-0.2-0.89-0.38-1.34-0.54l0.25-0.7c0.47,0.17,0.94,0.36,1.4,0.57L23.25,2.18z M11.27,1.67l-0.25-0.7
	c0.47-0.17,0.96-0.32,1.44-0.45l0.19,0.72C12.19,1.36,11.72,1.5,11.27,1.67z M21.22,1.41c-0.46-0.14-0.93-0.26-1.4-0.35l0.15-0.72
	c0.49,0.1,0.99,0.22,1.47,0.37L21.22,1.41z M13.36,1.08l-0.15-0.72c0.49-0.1,0.99-0.18,1.49-0.24l0.09,0.73
	C14.31,0.9,13.83,0.98,13.36,1.08z M19.11,0.93c-0.47-0.07-0.95-0.13-1.44-0.16l0.05-0.74c0.5,0.03,1.01,0.09,1.5,0.17L19.11,0.93z
	 M15.51,0.78l-0.05-0.74C15.84,0.01,16.24,0,16.64,0l0.33,0l-0.01,0.74l-0.31,0C16.26,0.74,15.88,0.75,15.51,0.78z"/>
<g>
	<path d="M24.81,26.09c0,0.48-0.49,0.72-1.46,0.72H9.33c0.24-1.92,1.74-4.83,4.5-8.73c3.18-4.35,4.89-6.72,5.13-7.11
		s0.39-0.68,0.47-0.87c0.13-0.29,0.2-0.58,0.2-0.88c0-0.3-0.06-0.58-0.19-0.84s-0.32-0.49-0.58-0.67c-0.57-0.4-1.38-0.61-2.42-0.61
		c-0.99,0-1.85,0.15-2.57,0.46c-1.22,0.53-2.01,1.08-2.35,1.66c-0.26,0.4-0.56,0.61-0.89,0.61c-0.34,0-0.5-0.21-0.5-0.62
		c0-0.51,0.46-1.07,1.38-1.67c1.46-0.93,3.2-1.4,5.21-1.4c2.45,0,4.42,0.52,5.9,1.57c1.41,1,2.12,2.28,2.12,3.84
		c0,0.89-0.12,1.64-0.37,2.23c-0.25,0.59-0.48,1.1-0.71,1.52s-0.51,0.89-0.84,1.41l-2.77,4.14c-1.33,1.95-2.26,3.59-2.78,4.92h4.23
		c0.54,0,1.04-0.04,1.5-0.13c0.57-0.11,0.96-0.16,1.18-0.16s0.38,0.06,0.49,0.19C24.76,25.8,24.81,25.94,24.81,26.09z"/>
</g>
</svg>
